<svg xmlns="http://www.w3.org/2000/svg" xmlns:svg="http://www.w3.org/2000/svg" id="logoSvg" width="500" height="500" version="1.1" viewBox="0 0 500 500"><defs id="svgDefs"><linearGradient id="waveGrad1" x1="32.567" x2="306.675" y1="157.721" y2="157.721" gradientTransform="scale(1.4738727,0.67848465)" gradientUnits="userSpaceOnUse"><stop id="stop1" offset="0%" stop-color="hsl(287, 100%, 50%)"/><stop id="stop2" offset="55.158%" stop-color="hsl(287, 100%, 50%)"/><stop id="stop3" offset="63.158%" stop-color="hsl(167, 100%, 50%)"/><stop id="stop4" offset="100%" stop-color="hsl(167, 100%, 50%)"/></linearGradient><linearGradient id="waveGrad2" x1="32.569" x2="306.688" y1="157.707" y2="157.707" gradientTransform="scale(1.4738115,0.67851284)" gradientUnits="userSpaceOnUse"><stop id="stop5" offset="0%" stop-color="hsl(47, 100%, 50%)"/><stop id="stop6" offset="55.158%" stop-color="hsl(47, 100%, 50%)"/><stop id="stop7" offset="63.158%" stop-color="hsl(167, 100%, 50%)"/><stop id="stop8" offset="100%" stop-color="hsl(167, 100%, 50%)"/></linearGradient></defs><g id="waveGroup" fill="none" stroke-linecap="round" stroke-linejoin="round" stroke-width="24" transform="translate(0,49.997075)"><path id="path8" stroke="url(#waveGrad1)" d="m 60,200 2,5.35334 2,5.32993 2,5.28321 2,5.2134 2,5.12078 2,5.00577 2,4.86888 2,4.7107 2,4.53191 2,4.33331 2,4.11576 2,3.88021 2,3.6277 2,3.35933 2,3.07625 2,2.77974 2,2.47107 2,2.15159 2,1.8227 2,1.48584 2,1.14249 2,0.79414 2,0.44232 2,0.0886 2,-0.26559 2,-0.61856 2,-0.96885 2,-1.31488 2,-1.65518 2,-1.98823 2,-2.31259 2,-2.62684 2,-2.9296 2,-3.21955 2,-3.49542 2,-3.75601 2,-4.00018 2,-4.22684 2,-4.43504 2,-4.62383 2,-4.79241 2,-4.94003 2,-5.06605 2,-5.16991 2,-5.25118 2,-5.30947 2,-5.34456 2,-5.35626 2,-5.34456 2,-5.30947 2,-5.25118 2,-5.16991 2,-5.06605 2,-4.94003 2,-4.79241 2,-4.62383 2,-4.43504 2,-4.22684 2,-4.00018 2,-3.75601 2,-3.49542 2,-3.21955 2,-2.9296 2,-2.62684 2,-2.31259 2,-1.98823 2,-1.65518 2,-1.31488 2,-0.96885 2,-0.61856 2,-0.26559 2,0.0886 2,0.44232 2,0.79414 2,1.14249 2,1.48584 2,1.8227 2,2.15159 2,2.47107 2,2.77974 2,3.07625 2,3.35933 2,3.6277 2,3.88021 2,4.11576 2,4.33331 2,4.53191 2,4.7107 2,4.86888 2,5.00577 2,5.12078 2,5.2134 2,5.28321 2,5.32993 2,5.35334 2,5.35334 2,5.32993 2,5.28321 2,5.2134 2,5.12078 2,5.00577 2,4.86888 2,4.7107 2,4.53191 2,4.33331 2,4.11576 2,3.88021 2,3.6277 2,3.35933 2,3.07625 2,2.77974 2,2.47107 2,2.15159 2,1.8227 2,1.48584 2,1.14249 2,0.79414 2,0.44232 2,0.0886 2,-0.26559 2,-0.61856 2,-0.96885 2,-1.31488 2,-1.65518 2,-1.98823 2,-2.31259 2,-2.62684 2,-2.9296 2,-3.21955 2,-3.49542 2,-3.75601 2,-4.00018 2,-4.22684 2,-4.43504 2,-4.62383 2,-4.79241 2,-4.94003 2,-5.06605 2,-5.16991 2,-5.25118 2,-5.30947 2,-5.34456 2,-5.35626 2,-5.34456 2,-5.30947 2,-5.25118 2,-5.16991 2,-5.06605 2,-4.94003 2,-4.79241 2,-4.62383 2,-4.43504 2,-4.22684 2,-4.00018 2,-3.75601 2,-3.49542 2,-3.21955 2,-2.9296 2,-2.62684 2,-2.31259 2,-1.98823 2,-1.65518 2,-1.31488 2,-0.96885 2,-0.61856 2,-0.26559 2,0.0886 2,0.44232 2,0.79414 2,1.14249 2,1.48584 2,1.8227 2,2.15159 2,2.47107 2,2.77974 2,3.07625 2,3.35933 2,3.6277 2,3.88021 2,4.11576 2,4.33331 2,4.53191 2,4.7107 2,4.86888 2,5.00577 2,5.12078 2,5.2134 2,5.28321 2,5.32993 2,5.35334" style="stroke:url(#waveGrad1)"/><path id="path9" stroke="url(#waveGrad2)" d="m 60,200 2,-3.23581 2,-3.23064 2,-3.22031 2,-3.20485 2,-3.18427 2,-3.15861 2,-3.1279 2,-3.09219 2,-3.05156 2,-3.00605 2,-2.95573 2,-2.90071 2,-2.84106 2,-2.77685 2,-2.70823 2,-2.63528 2,-2.55812 2,-2.47687 2,-2.39168 2,-2.30266 2,-2.20997 2,-2.11376 2,-2.01415 2,-1.91135 2,-1.80549 2,-1.69674 2,-1.58529 2,-1.4713 2,-1.35497 2,-1.23648 2,-1.116 2,-0.99376 2,-0.86992 2,-0.74469 2,-0.61827 2,-0.49087 2,-0.36268 2,-0.23392 2,-0.10478 2,0.0245 2,0.15379 2,0.28282 2,0.41138 2,0.5393 2,0.66635 2,0.79234 2,0.91707 2,1.04032 2,1.16192 2,1.28167 2,1.39936 2,1.51483 2,1.62787 2,1.73832 2,1.84598 2,1.95072 2,2.05232 2,2.15065 2,2.24555 2,2.33687 2,2.42445 2,2.50817 2,2.58787 2,2.66345 2,2.73478 2,2.80173 2,2.86422 2,2.92213 2,2.97539 2,3.02387 2,3.06755 2,3.10632 2,3.14014 2,3.16894 2,3.19267 2,3.21132 2,3.22484 2,3.23321 2,3.23641 2,3.23446 2,3.22733 2,3.21505 2,3.19765 2,3.17513 2,3.14755 2,3.11494 2,3.07736 2,3.03486 2,2.98753 2,2.93541 2,2.87862 2,2.81724 2,2.75134 2,2.68106 2,2.6065 2,2.52777 2,2.44502 2,2.35836 2,2.26792 2,2.17389 2,2.07636 2,1.97553 2,1.87154 2,1.76457 2,1.65477 2,1.54235 2,1.42744 2,1.31027 2,1.191 2,1.06984 2,0.94695 2,0.82257 2,0.69687 2,0.57006 2,0.44233 2,0.31389 2,0.18497 2,0.0557 2,-0.0736 2,-0.20278 2,-0.61856 2,-0.96885 2,-1.31488 2,-1.65518 2,-1.98823 2,-2.31259 2,-2.62684 2,-2.9296 2,-3.21955 2,-3.49542 2,-3.75601 2,-4.00018 2,-4.22684 2,-4.43504 2,-4.62383 2,-4.79241 2,-4.94003 2,-5.06605 2,-5.16991 2,-5.25118 2,-5.30947 2,-5.34456 2,-5.35626 2,-5.34456 2,-5.30947 2,-5.25118 2,-5.16991 2,-5.06605 2,-4.94003 2,-4.79241 2,-4.62383 2,-4.43504 2,-4.22684 2,-4.00018 2,-3.75601 2,-3.49542 2,-3.21955 2,-2.9296 2,-2.62684 2,-2.31259 2,-1.98823 2,-1.65518 2,-1.31488 2,-0.96885 2,-0.61856 2,-0.26559 2,0.0886 2,0.44232 2,0.79414 2,1.14249 2,1.48584 2,1.8227 2,2.15159 2,2.47107 2,2.77974 2,3.07625 2,3.35933 2,3.6277 2,3.88021 2,4.11576 2,4.33331 2,4.53191 2,4.7107 2,4.86888 2,5.00577 2,5.12078 2,5.2134 2,5.28321 2,5.32993 2,5.35334" style="stroke:url(#waveGrad2)"/></g></svg>